<svg width="134" height="90" viewBox="0 0 134 90" fill="none" xmlns="http://www.w3.org/2000/svg">
<g filter="url(#filter0_d_198_150)">
<path d="M83.373 0C84.4542 0 85.452 0.581471 85.9843 1.52246L133.278 85.1221C134.41 87.122 132.965 89.5996 130.667 89.5996H106.769C105.658 89.5996 104.638 88.9855 104.118 88.0039L96.7207 74.043C96.2006 73.0614 95.1802 72.4473 94.0693 72.4473H46.3408C45.2363 72.4473 44.2211 73.0545 43.6982 74.0273L36.1797 88.0195C35.6568 88.9925 34.6416 89.5996 33.5371 89.5996H10.0049C7.70857 89.5996 6.26308 87.1249 7.39157 85.125L54.5664 1.52539C55.0983 0.582824 56.0964 9.41812e-05 57.1787 0H83.373ZM64.3925 32.1807L39.3115 38.0996L64.3925 44.0186L70.3115 69.0996L76.2295 44.0186L101.311 38.0996L76.2295 32.1807L70.3115 7.09961L64.3925 32.1807Z" fill="white"/>
</g>
<defs>
<filter id="filter0_d_198_150" x="0" y="0" width="133.672" height="89.5996" filterUnits="userSpaceOnUse" color-interpolation-filters="sRGB">
<feFlood flood-opacity="0" result="BackgroundImageFix"/>
<feColorMatrix in="SourceAlpha" type="matrix" values="0 0 0 0 0 0 0 0 0 0 0 0 0 0 0 0 0 0 127 0" result="hardAlpha"/>
<feOffset dx="-7"/>
<feComposite in2="hardAlpha" operator="out"/>
<feColorMatrix type="matrix" values="0 0 0 0 0.85098 0 0 0 0 0.85098 0 0 0 0 0.85098 0 0 0 1 0"/>
<feBlend mode="normal" in2="BackgroundImageFix" result="effect1_dropShadow_198_150"/>
<feBlend mode="normal" in="SourceGraphic" in2="effect1_dropShadow_198_150" result="shape"/>
</filter>
</defs>
</svg>
