<svg width="213" height="42" viewBox="0 0 213 42" fill="none" xmlns="http://www.w3.org/2000/svg">
<path d="M34.7197 0C35.8028 0 36.8013 0.583785 37.333 1.52734L44.8047 14.7881L32.5039 14.6416L30.1133 5.72363C29.9543 5.13084 29.1131 5.13084 28.9541 5.72363L26.5625 14.6416L17.6699 17.0459C17.0789 17.2058 17.0789 18.0442 17.6699 18.2041L26.5625 20.6084L28.9541 29.5264C29.1131 30.1191 29.9543 30.1191 30.1133 29.5264L32.5039 20.6084L47.9795 20.4229L57.6172 37.5273C58.7439 39.5272 57.2983 42 55.0029 42H47.5439C46.4314 41.9999 45.4099 41.3843 44.8906 40.4004L42.3369 35.5596C41.8176 34.5756 40.7962 33.96 39.6836 33.96H19.3271C18.2207 33.96 17.2037 34.5694 16.6816 35.5449L14.0752 40.415C13.5532 41.3906 12.5361 42 11.4297 42H4.13184C1.838 41.9999 0.392853 39.53 1.5166 37.5303L21.749 1.53027C22.2802 0.585116 23.2801 3.00896e-05 24.3643 0H34.7197ZM70.1143 27.7197C70.1143 29.3764 71.4576 30.7195 73.1143 30.7197H107.451C109.108 30.7197 110.451 32.063 110.451 33.7197V39C110.451 40.6569 109.108 42 107.451 42H61.9404C60.2836 42 58.9404 40.6569 58.9404 39V20.292L70.1143 20.1592V27.7197ZM127.343 39C127.343 40.6568 126 41.9999 124.343 42H119.168C117.511 42 116.168 40.6569 116.168 39V19.6084L127.343 19.4756V39ZM159.288 39C159.288 40.6568 157.945 41.9999 156.288 42H151.113C149.456 42 148.113 40.6569 148.113 39V19.2275L159.288 19.0938V39ZM172.354 18.9375C172.285 19.1934 172.245 19.4673 172.245 19.7578V39C172.245 40.6569 170.902 42 169.245 42H164.071C162.414 42 161.071 40.6569 161.071 39V19.0723L172.354 18.9375ZM213 39C213 40.6569 211.657 42 210 42H200.422C199.566 41.9999 198.751 41.6341 198.182 40.9951L178.467 18.8652L192.436 18.6982L196.643 23.4355C198.475 25.4985 201.886 24.2026 201.886 21.4434V18.585L213 18.4521V39ZM210 0C211.657 0 213 1.34315 213 3V16.7969L201.886 16.6641V3C201.886 1.34315 203.229 0 204.886 0H210ZM174.483 0C175.341 0.000130792 176.157 0.366801 176.727 1.00781L190.509 16.5283L161.071 16.1768V3C161.071 1.34315 162.414 0 164.071 0H174.483ZM156.288 0C157.945 9.69248e-05 159.288 1.34321 159.288 3V16.1553L148.113 16.0215V3C148.113 1.34315 149.456 0 151.113 0H156.288ZM143.346 0C145.003 2.5137e-05 146.346 1.34316 146.346 3V8.28027C146.345 9.93692 145.002 11.2802 143.346 11.2803H130.343C128.686 11.2803 127.343 12.6234 127.343 14.2803V15.7734L116.168 15.6406V14.2803C116.168 12.6234 114.825 11.2803 113.168 11.2803H100.165C98.5083 11.2803 97.1653 9.93694 97.165 8.28027V3C97.165 1.34315 98.5082 0 100.165 0H143.346ZM67.1143 0C68.7711 0 70.1143 1.34315 70.1143 3V15.0898L58.9404 14.957V3C58.9404 1.34315 60.2836 0 61.9404 0H67.1143Z" fill="#8A38F5"/>
</svg>
